Coordinates
version=1
nRows=19
nColumns=36
inDegrees=yes

Units are S.I. units (second, meters, Newtons, ...)
If the header above contains a line with 'inDegrees', this indicates whether rotational values are in degrees (yes) or radians (no).

endheader
time	pelvis_tilt	pelvis_list	pelvis_rotation	pelvis_tx	pelvis_ty	pelvis_tz	hip_flexion_r	hip_adduction_r	hip_rotation_r	knee_angle_r	knee_angle_r_beta	ankle_angle_r	subtalar_angle_r	mtp_angle_r	hip_flexion_l	hip_adduction_l	hip_rotation_l	knee_angle_l	knee_angle_l_beta	ankle_angle_l	subtalar_angle_l	mtp_angle_l	lumbar_extension	lumbar_bending	lumbar_rotation	arm_flex_r	arm_add_r	arm_rot_r	elbow_flex_r	pro_sup_r	arm_flex_l	arm_add_l	arm_rot_l	elbow_flex_l	pro_sup_l
      2.67916670	    -10.55742459	      0.48615123	      0.76713033	      0.51322877	      1.28361505	     -0.13417098	     11.37963720	     -5.17490182	     -9.92021818	      4.61106709	      0.08047830	    -29.20468756	     -5.54170825	     -7.49999987	     13.19240243	     -3.49491090	     -9.77752446	      3.73040089	      0.06510778	    -36.82163024	     -2.22916292	     -7.49999987	     -2.81804122	      1.68241475	      2.91660095	    -25.75855300	    -27.74030929	      7.64852867	     59.99669418	     69.97852142	    -17.55325779	    -24.57198435	     23.97104243	     61.47070360	     59.67640748
      2.68333330	    -10.43978205	      0.43921181	      0.77413481	      0.51336256	      1.28113664	     -0.13394903	     11.41470357	     -5.11716999	    -10.05948469	      4.61476892	      0.08054291	    -28.94778648	     -5.35716822	     -7.49999987	     13.24913365	     -3.66998172	     -9.85522229	      3.80329681	      0.06638005	    -36.56223993	     -2.05390923	     -7.49999987	     -3.10302274	      1.78177721	      2.96223483	    -25.66536175	    -27.84692386	      7.74785719	     61.15843184	     69.25821656	    -17.54244371	    -24.96821636	     23.82224233	     62.76676001	     59.80428853
      2.68750000	    -10.35543417	      0.40916225	      0.79625620	      0.51288956	      1.27797667	     -0.13238304	     11.51007331	     -5.05766787	    -10.03227416	      4.59032512	      0.08011629	    -28.92274224	     -5.71398203	     -7.49999987	     13.36976132	     -3.83361981	    -10.03508951	      3.92148173	      0.06844277	    -36.27730801	     -1.91227365	     -7.49999987	     -3.37996539	      1.81199623	      2.99879847	    -25.50304849	    -27.72177221	      7.25899975	     62.07988768	     74.73742705	    -17.58779579	    -25.57581405	     23.68788677	     64.39874200	     60.88258343
      2.69166670	    -10.32043448	      0.36794508	      0.83645002	      0.51259887	      1.27072701	     -0.13181121	     11.67565096	     -5.01001064	    -10.18487323	      4.59226643	      0.08015017	    -28.75386953	     -5.90942257	     -7.49999987	     13.56899781	     -3.98802540	    -10.06338809	      4.04578081	      0.07061220	    -36.06580072	     -1.93850244	     -7.49999987	     -3.58046642	      1.87554422	      3.02699214	    -25.38729602	    -27.75269079	      7.24061592	     63.18808390	     73.59563425	    -17.80760018	    -26.07121015	     23.08554357	     66.11997648	     60.91895593
      2.69583330	    -10.20750805	      0.35037011	      0.82574983	      0.51314627	      1.26819947	     -0.13075716	     11.73545536	     -4.93294501	    -10.11766328	      4.63541057	      0.08090318	    -28.56363887	     -6.09588375	     -7.49999987	     13.66002293	     -4.16417156	    -10.56086282	      4.15445395	      0.07250890	    -35.60766923	     -1.56795626	     -7.49999987	     -3.90943868	      1.84162464	      3.09602001	    -25.07870807	    -27.72798270	      7.55283002	     64.05677911	     72.79939524	    -17.81650976	    -26.61596915	     23.00290859	     67.71793643	     60.99390568
      2.70000000	    -10.23065215	      0.31915818	      0.80826211	      0.51042039	      1.26425262	     -0.12881185	     12.03463409	     -4.86200822	     -9.97492081	      4.69052600	      0.08186512	    -28.47794819	     -6.48609434	     -7.49999987	     13.97399556	     -4.36838241	    -10.96264846	      4.33013179	      0.07557506	    -35.31822545	     -1.41886766	     -7.49999987	     -4.11605390	      1.79103009	      2.95632457	    -24.28093417	    -27.88864347	      8.27955147	     64.47076322	     74.20002374	    -18.05485723	    -26.94385464	     22.17777592	     69.21661440	     61.71268425
      2.70416670	    -10.16704415	      0.28733666	      0.82412879	      0.51241096	      1.25932592	     -0.12975802	     12.15091764	     -4.83547197	     -9.99440334	      4.71373256	      0.08227015	    -28.42079816	     -6.52734643	     -7.49999987	     14.10083856	     -4.53584369	    -11.23949221	      4.39182857	      0.07665187	    -34.90299048	     -1.18082090	     -7.49999987	     -4.34270977	      1.75222408	      2.92032024	    -23.77287541	    -27.88530362	      8.76489366	     65.04258463	     73.63532853	    -18.12737617	    -27.19044490	     21.77151789	     70.46084575	     61.96957812
      2.70833330	    -10.21447684	      0.28270668	      0.87178239	      0.51347707	      1.25378051	     -0.13263810	     12.36843424	     -4.93775482	     -9.91069479	      4.79674342	      0.08371897	    -28.32726162	     -6.67618170	     -7.49999987	     14.35098662	     -4.60087527	    -11.28187909	      4.45257678	      0.07771213	    -34.79422328	     -1.38658478	     -7.49999987	     -4.46109012	      1.80202952	      2.92694887	    -23.45377166	    -28.00359826	      8.88413627	     65.56966339	     73.27624087	    -18.13890863	    -27.17489734	     21.53338065	     71.31380813	     62.09085634
      2.71250000	    -10.20830943	      0.35812146	      0.73739591	      0.51405453	      1.25051456	     -0.13168763	     12.54768533	     -5.03351172	     -9.64679705	      4.83210347	      0.08433612	    -28.19582310	     -6.71583879	     -7.49999987	     14.46922768	     -4.65014662	    -11.88903691	      4.48405055	      0.07826145	    -34.42308603	     -0.83078539	     -7.49999987	     -4.61845682	      1.76208302	      3.04679667	    -23.24744187	    -28.08438383	      9.07690518	     66.33484165	     72.85095483	    -18.35174044	    -27.24462372	     21.05814113	     72.40818303	     62.27245494
      2.71666670	    -10.25252005	      0.39401932	      0.73321664	      0.51489433	      1.23836287	     -0.13299491	     12.75141789	     -5.18364811	     -9.80012710	      5.02024285	      0.08761977	    -27.71435811	     -6.53652455	     -7.49999987	     14.65092895	     -4.64572130	    -12.01347010	      4.57640971	      0.07987342	    -33.95081202	     -0.88131210	     -7.49999987	     -4.60294427	      1.79746165	      3.10766790	    -23.42794905	    -28.42097191	      9.25458708	     67.60229810	     72.00672169	    -18.77826337	    -27.42194103	     20.71290911	     73.94421818	     62.40401907
      2.72083330	    -10.30035781	      0.50161324	      0.67492548	      0.51687140	      1.23646165	     -0.13392860	     12.93843412	     -5.39859561	     -9.64288141	      5.16476963	      0.09014224	    -27.51213064	     -6.56672883	     -7.49999987	     14.73759003	     -4.55549361	    -12.24140107	      4.62041560	      0.08064147	    -33.57503143	     -0.61026337	     -7.49999987	     -4.62099111	      1.73717241	      3.00286653	    -23.42349906	    -28.58422277	      9.31190782	     68.87409186	     71.99811272	    -19.33104990	    -27.28034531	     19.91519820	     75.20382025	     62.87761034
      2.72500000	    -10.37678109	      0.59412379	      0.52101154	      0.51753341	      1.23265553	     -0.13326841	     13.19002286	     -5.51899763	     -9.05145715	      5.21353716	      0.09099339	    -27.68650334	     -7.11685543	     -7.49999987	     14.86537181	     -4.53662148	    -12.61469667	      4.78531739	      0.08351954	    -33.17870864	     -0.35282842	     -7.49999987	     -4.52708489	      1.61914180	      3.14479698	    -23.28962398	    -28.54566434	      9.31451374	     69.50404920	     71.68821051	    -19.52012732	    -27.09940049	     19.19900476	     75.88260462	     63.06039800
      2.72916670	    -10.34026003	      0.62726465	      0.53050212	      0.51820005	      1.22912140	     -0.13433271	     13.22930401	     -5.64467977	     -9.37917982	      5.23226727	      0.09132029	    -27.34420624	     -6.38904530	     -7.49999987	     14.84567036	     -4.52501528	    -12.52115602	      4.88200067	      0.08520699	    -33.03564575	     -0.63203960	     -7.49999987	     -4.55531127	      1.64845846	      2.96036673	    -22.94651315	    -28.64898232	      9.39094744	     70.18639195	     71.57167568	    -19.75567688	    -26.89464033	     18.65584922	     76.57698662	     63.40725434
      2.73333330	    -10.36168624	      0.69564716	      0.43192325	      0.52109579	      1.22356934	     -0.13510164	     13.30861343	     -5.77607841	     -9.29126483	      5.22359742	      0.09116897	    -27.38783942	     -6.20008911	     -7.49999987	     14.85203873	     -4.54911370	    -12.97750586	      5.01954043	      0.08760751	    -32.56170506	     -0.32597294	     -7.49999987	     -4.56970887	      1.54469471	      2.47997780	    -22.18820140	    -28.81680445	      9.66156573	     70.52668945	     78.25137385	    -20.91060698	    -26.06559167	     16.24505268	     77.42640877	     68.74121393
      2.73750000	    -10.30825869	      0.68714527	      0.39172070	      0.52132320	      1.21624781	     -0.13589898	     13.38107976	     -5.86753400	     -9.14048289	      5.27590087	      0.09208184	    -27.57718444	     -6.45464192	     -7.49999987	     14.82880118	     -4.65589565	    -13.16467160	      5.19841257	      0.09072942	    -32.29900536	     -0.36830171	     -7.49999987	     -4.61960912	      1.59501523	      2.66748402	    -22.21547873	    -28.83302623	      9.47785362	     71.21277530	     77.04005277	    -20.78607065	    -25.84283558	     16.10023388	     78.17908665	     68.34917822
      2.74166670	    -10.29611583	      0.72318119	      0.32792761	      0.52094425	      1.21509618	     -0.13751949	     13.53661364	     -6.06293581	     -9.27771538	      5.38811719	      0.09404039	    -27.51965143	     -5.90095518	     -7.49999987	     14.85436432	     -4.68832478	    -13.17703784	      5.26945359	      0.09196931	    -32.20304204	     -0.32484137	     -7.49999987	     -4.67056638	      1.58820212	      2.77222610	    -22.09502476	    -28.81643979	      9.31093201	     71.78715307	     76.41351689	    -20.52906435	    -25.48555732	     15.92105238	     78.56756251	     68.20988310
      2.74583330	    -10.21426833	      0.74665868	      0.27020323	      0.52220581	      1.20807503	     -0.13745958	     13.56107283	     -6.21174879	     -9.29541207	      5.42282350	      0.09464612	    -27.69602025	     -5.72780732	     -7.49999987	     14.82412035	     -4.75703361	    -13.35477956	      5.34005859	      0.09320160	    -32.07530352	     -0.24035587	     -7.49999987	     -4.81686525	      1.60789863	      2.84696268	    -22.09259051	    -28.75931259	      8.99493266	     72.79776078	     76.48838431	    -20.52973740	    -25.17177596	     15.45172956	     79.41869949	     68.73875178
      2.75000000	    -10.17803979	      0.82612897	      0.17661431	      0.52201867	      1.20160474	     -0.14097293	     13.68618494	     -6.47939803	     -9.45580369	      5.53501871	      0.09660430	    -27.98355889	     -5.76104978	     -7.49999987	     14.88980148	     -4.70235783	    -13.38525608	      5.48438710	      0.09572061	    -32.03646786	     -0.27528390	     -7.49999987	     -4.88315825	      1.59047893	      2.91763315	    -21.83460232	    -28.81279323	      8.90641879	     73.39206229	     76.64210601	    -20.31948780	    -24.88439380	     15.45871931	     80.03386957	     69.01469821
      2.75416670	    -10.18940127	      0.85376752	      0.10688714	      0.52230879	      1.19581568	     -0.14230643	     13.88463483	     -6.71922854	     -9.82387510	      5.63716286	      0.09838705	    -28.10759350	     -5.63455257	     -7.49999987	     15.01378704	     -4.68446182	    -13.51340711	      5.57944211	      0.09737964	    -32.00964486	     -0.42918313	     -7.49999987	     -5.00304678	      1.70477745	      3.05624123	    -21.70273809	    -28.92619682	      8.60740068	     74.34241970	     77.13827459	    -20.12123899	    -24.57030367	     15.47570336	     80.83206787	     70.11801999
